# xmcd
#
# Track frame offsets: 
#        150
#        10745
#        20186
#        36676
#        57502
#        70740
#        85384
#        99397
#        111709
#        125924
#        134771
#        144942
#        159630
#        170518
#        181540
#
# Disc length: 2584 seconds
#
# Revision: 2
# Processed by: cddbd v1.5.2PL0 Copyright (c) Steve Scherf et al.
# Submitted via: ExactAudioCopy v0.99pb4
#
DISCID=e00a160f
DTITLE=Various Artist - easy Country
DYEAR=2006
DGENRE=Country
TTITLE0=Johnny Cash/Cold Cold Heart
TTITLE1=The Byrds/All I Really Want To Do
TTITLE2=Ryan Adams/Why Do They Leave?
TTITLE3=Kelly Willis/Time Has Told Me
TTITLE4=The Flatlanders/Tonight I´m Gonna Go Downtown
TTITLE5=Heather Myles/No One Is Gonna Love You Better
TTITLE6=Lynn Morris/You´ll Get No More Out Of Me
TTITLE7=Ralph Stanley/Working On A Building
TTITLE8=The Soggy Bottom Boys/Man Of Constant Sorrow
TTITLE9=Emmylou Harris, Alison Krauss, Gillian Welch/Didn't Leave Nobo
TTITLE9=dy But The Baby
TTITLE10=Patsy Cline/Three Cigarettes In An Ashtray
TTITLE11=Johnny Paycheck/A Good Year For The Roses
TTITLE12=The Whitstein Brothers/Mansion On The Hill
TTITLE13=Johnny Russell/Blue Eyes Crying In The Rain
TTITLE14=Willie Nelson/The Shelter Of Your Arms
EXTD=
EXTT0=
EXTT1=
EXTT2=
EXTT3=
EXTT4=
EXTT5=
EXTT6=
EXTT7=
EXTT8=
EXTT9=
EXTT10=
EXTT11=
EXTT12=
EXTT13=
EXTT14=
PLAYORDER=
